<svg id="Layer_1" data-name="Layer 1" xmlns="http://www.w3.org/2000/svg" xmlns:xlink="http://www.w3.org/1999/xlink" viewBox="0 0 420 520"><defs><linearGradient id="linear-gradient" x1="432.89" y1="439.87" x2="432.89" y2="365.72" gradientTransform="matrix(0, 1, -1, 0, 469.85, 50.49)" gradientUnits="userSpaceOnUse"><stop offset="0" stop-color="#2f3041"/><stop offset="1" stop-color="#202033"/></linearGradient><linearGradient id="linear-gradient-2" x1="364.94" y1="464.88" x2="364.94" y2="438.26" xlink:href="#linear-gradient"/><linearGradient id="linear-gradient-3" x1="376.51" y1="429.8" x2="237.44" y2="465.94" gradientTransform="matrix(0, 1, -1, 0, 469.85, 50.49)" gradientUnits="userSpaceOnUse"><stop offset="0" stop-color="#3cbff0"/><stop offset="1" stop-color="#4489c9"/></linearGradient><linearGradient id="linear-gradient-4" x1="259.75" y1="380.91" x2="335.36" y2="469.54" xlink:href="#linear-gradient-3"/><linearGradient id="linear-gradient-5" x1="422.35" y1="398.51" x2="482.38" y2="465.37" xlink:href="#linear-gradient-3"/><linearGradient id="linear-gradient-6" x1="411.79" y1="385.77" x2="450.25" y2="430.85" xlink:href="#linear-gradient-3"/><linearGradient id="linear-gradient-7" x1="399.56" y1="458.97" x2="410.81" y2="458.97" xlink:href="#linear-gradient-3"/><linearGradient id="linear-gradient-8" x1="410.36" y1="458.96" x2="421.61" y2="458.96" xlink:href="#linear-gradient-3"/><linearGradient id="linear-gradient-9" x1="421.16" y1="458.96" x2="432.42" y2="458.96" xlink:href="#linear-gradient-3"/><linearGradient id="linear-gradient-10" x1="433.02" y1="2273.23" x2="433.02" y2="2199.1" gradientTransform="matrix(0, 1, 1, 0, -1882.79, 48.77)" xlink:href="#linear-gradient"/><linearGradient id="linear-gradient-11" x1="365.1" y1="2298.2" x2="365.1" y2="2271.59" gradientTransform="matrix(0, 1, 1, 0, -1882.79, 48.77)" xlink:href="#linear-gradient"/><linearGradient id="linear-gradient-12" x1="376.64" y1="2263.1" x2="237.6" y2="2299.23" gradientTransform="matrix(0, 1, 1, 0, -1882.79, 48.77)" xlink:href="#linear-gradient-3"/><linearGradient id="linear-gradient-13" x1="259.86" y1="2214.17" x2="335.51" y2="2302.85" gradientTransform="matrix(0, 1, 1, 0, -1882.79, 48.77)" xlink:href="#linear-gradient-3"/><linearGradient id="linear-gradient-14" x1="422.46" y1="2231.86" x2="482.53" y2="2298.76" gradientTransform="matrix(0, 1, 1, 0, -1882.79, 48.77)" xlink:href="#linear-gradient-3"/><linearGradient id="linear-gradient-15" x1="411.89" y1="2219.11" x2="450.38" y2="2264.22" gradientTransform="matrix(0, 1, 1, 0, -1882.79, 48.77)" xlink:href="#linear-gradient-3"/><linearGradient id="linear-gradient-16" x1="399.72" y1="2292.31" x2="410.97" y2="2292.31" gradientTransform="matrix(0, 1, 1, 0, -1882.79, 48.77)" xlink:href="#linear-gradient-3"/><linearGradient id="linear-gradient-17" x1="410.52" y1="2292.31" x2="421.77" y2="2292.31" gradientTransform="matrix(0, 1, 1, 0, -1882.79, 48.77)" xlink:href="#linear-gradient-3"/><linearGradient id="linear-gradient-18" x1="421.32" y1="2292.32" x2="432.57" y2="2292.32" gradientTransform="matrix(0, 1, 1, 0, -1882.79, 48.77)" xlink:href="#linear-gradient-3"/><linearGradient id="linear-gradient-19" x1="461.37" y1="2311.68" x2="461.37" y2="2115.71" gradientTransform="matrix(0, 1, 1, 0, -2026.77, 48.67)" xlink:href="#linear-gradient"/><linearGradient id="linear-gradient-20" x1="452.39" y1="2225.72" x2="452.39" y2="2104.61" gradientTransform="matrix(0, 1, 1, 0, -1969.35, 48.71)" xlink:href="#linear-gradient-3"/><linearGradient id="linear-gradient-21" x1="664.01" y1="2665.96" x2="664.01" y2="2686.88" gradientTransform="translate(2483.46 1926.27) rotate(135.04)" xlink:href="#linear-gradient-3"/><linearGradient id="linear-gradient-22" x1="542.93" y1="2544.79" x2="542.93" y2="2565.71" gradientTransform="translate(2483.46 1926.27) rotate(135.04)" xlink:href="#linear-gradient-3"/><linearGradient id="linear-gradient-23" x1="6035.11" y1="439.98" x2="6035.11" y2="365.85" gradientTransform="matrix(0, -1, -1, 0, 465.46, 6071.98)" xlink:href="#linear-gradient"/><linearGradient id="linear-gradient-24" x1="5967.19" y1="464.96" x2="5967.19" y2="438.35" gradientTransform="matrix(0, -1, -1, 0, 465.46, 6071.98)" xlink:href="#linear-gradient"/><linearGradient id="linear-gradient-25" x1="5978.73" y1="429.86" x2="5839.7" y2="465.98" gradientTransform="matrix(0, -1, -1, 0, 465.46, 6071.98)" xlink:href="#linear-gradient-3"/><linearGradient id="linear-gradient-26" x1="5861.95" y1="380.93" x2="5937.61" y2="469.6" gradientTransform="matrix(0, -1, -1, 0, 465.46, 6071.98)" xlink:href="#linear-gradient-3"/><linearGradient id="linear-gradient-27" x1="6024.55" y1="398.61" x2="6084.62" y2="465.52" gradientTransform="matrix(0, -1, -1, 0, 465.46, 6071.98)" xlink:href="#linear-gradient-3"/><linearGradient id="linear-gradient-28" x1="6013.98" y1="385.87" x2="6052.47" y2="430.98" gradientTransform="matrix(0, -1, -1, 0, 465.46, 6071.98)" xlink:href="#linear-gradient-3"/><linearGradient id="linear-gradient-29" x1="6001.81" y1="459.07" x2="6013.06" y2="459.07" gradientTransform="matrix(0, -1, -1, 0, 465.46, 6071.98)" xlink:href="#linear-gradient-3"/><linearGradient id="linear-gradient-30" x1="6012.62" y1="459.07" x2="6023.86" y2="459.07" gradientTransform="matrix(0, -1, -1, 0, 465.46, 6071.98)" xlink:href="#linear-gradient-3"/><linearGradient id="linear-gradient-31" x1="6023.42" y1="459.07" x2="6034.66" y2="459.07" gradientTransform="matrix(0, -1, -1, 0, 465.46, 6071.98)" xlink:href="#linear-gradient-3"/><linearGradient id="linear-gradient-32" x1="6034.98" y1="2273.11" x2="6034.98" y2="2198.97" gradientTransform="matrix(0, -1, 1, 0, -1887.19, 6070.26)" xlink:href="#linear-gradient"/><linearGradient id="linear-gradient-33" x1="5967.04" y1="2298.13" x2="5967.04" y2="2271.51" gradientTransform="matrix(0, -1, 1, 0, -1887.19, 6070.26)" xlink:href="#linear-gradient"/><linearGradient id="linear-gradient-34" x1="5978.6" y1="2263.05" x2="5839.53" y2="2299.18" gradientTransform="matrix(0, -1, 1, 0, -1887.19, 6070.26)" xlink:href="#linear-gradient-3"/><linearGradient id="linear-gradient-35" x1="5861.84" y1="2214.16" x2="5937.45" y2="2302.78" gradientTransform="matrix(0, -1, 1, 0, -1887.19, 6070.26)" xlink:href="#linear-gradient-3"/><linearGradient id="linear-gradient-36" x1="6024.45" y1="2231.75" x2="6084.47" y2="2298.61" gradientTransform="matrix(0, -1, 1, 0, -1887.19, 6070.26)" xlink:href="#linear-gradient-3"/><linearGradient id="linear-gradient-37" x1="6013.88" y1="2219.01" x2="6052.35" y2="2264.1" gradientTransform="matrix(0, -1, 1, 0, -1887.19, 6070.26)" xlink:href="#linear-gradient-3"/><linearGradient id="linear-gradient-38" x1="6001.65" y1="2292.21" x2="6012.91" y2="2292.21" gradientTransform="matrix(0, -1, 1, 0, -1887.19, 6070.26)" xlink:href="#linear-gradient-3"/><linearGradient id="linear-gradient-39" x1="6012.46" y1="2292.21" x2="6023.71" y2="2292.21" gradientTransform="matrix(0, -1, 1, 0, -1887.19, 6070.26)" xlink:href="#linear-gradient-3"/><linearGradient id="linear-gradient-40" x1="6023.26" y1="2292.21" x2="6034.51" y2="2292.21" gradientTransform="matrix(0, -1, 1, 0, -1887.19, 6070.26)" xlink:href="#linear-gradient-3"/><linearGradient id="linear-gradient-41" x1="6063.46" y1="2311.55" x2="6063.46" y2="2115.57" gradientTransform="matrix(0, -1, 1, 0, -2031.17, 6070.16)" xlink:href="#linear-gradient"/><linearGradient id="linear-gradient-42" x1="6054.48" y1="2225.6" x2="6054.48" y2="2104.49" gradientTransform="matrix(0, -1, 1, 0, -1973.75, 6070.2)" xlink:href="#linear-gradient-3"/><linearGradient id="linear-gradient-43" x1="4625.46" y1="-1295.32" x2="4625.46" y2="-1274.41" gradientTransform="matrix(-0.71, -0.71, -0.71, 0.71, 2481.8, 4199.14)" xlink:href="#linear-gradient-3"/><linearGradient id="linear-gradient-44" x1="4504.29" y1="-1416.39" x2="4504.29" y2="-1395.49" gradientTransform="matrix(-0.71, -0.71, -0.71, 0.71, 2481.8, 4199.14)" xlink:href="#linear-gradient-3"/></defs><polygon points="90.21 506.25 25.63 506.18 25.65 459.91 90.21 506.25" style="fill:url(#linear-gradient)"/><polygon points="26.45 389.76 3.28 373.13 3.25 440.45 26.41 457.07 26.45 389.76" style="fill:url(#linear-gradient-2)"/><polygon points="9.71 283.42 2.59 288.51 2.56 349.22 12.95 356.68 12.92 422.24 35.36 438.35 35.39 383.56 28.32 378.49 28.37 283.44 9.71 283.42" style="fill:url(#linear-gradient-3)"/><polygon points="28.32 378.49 28.37 283.44 22.58 283.43 22.51 429.12 35.36 438.35 35.39 383.56 28.32 378.49" style="fill:url(#linear-gradient-4)"/><line x1="22.58" y1="283.43" x2="22.51" y2="429.12" style="fill:none;stroke:#5ec4e6;stroke-miterlimit:10;stroke-width:0.35450810692310936px"/><polygon points="26.17 515.33 47.37 515.35 53.42 511.02 110.39 511.08 91.1 497.24 41.7 497.19 38.21 494.68 38.22 459.29 18.94 445.45 18.92 486.26 12.86 490.59 12.85 505.77 26.17 515.33" style="fill:url(#linear-gradient-5)"/><polygon points="12.85 509.14 21.46 515.32 12.85 515.31 12.85 509.14" style="fill:#fff"/><polygon points="29.25 498.16 36.85 503.61 100.07 503.68 91.1 497.24 41.7 497.19 38.21 494.68 38.22 459.29 29.28 452.87 29.25 498.16" style="fill:url(#linear-gradient-6)"/><polyline points="29.28 452.87 29.25 498.16 36.85 503.61 100.07 503.68" style="fill:none;stroke:#5ec4e6;stroke-miterlimit:10;stroke-width:0.35450810692310936px"/><polygon points="14.51 460.97 6.66 455.34 6.67 449.71 14.52 455.35 14.51 460.97" style="fill:url(#linear-gradient-7)"/><polygon points="14.51 471.77 6.66 466.14 6.66 460.51 14.51 466.15 14.51 471.77" style="fill:url(#linear-gradient-8)"/><polygon points="14.5 482.57 6.65 476.94 6.66 471.31 14.51 476.95 14.5 482.57" style="fill:url(#linear-gradient-9)"/><polygon points="329.56 506.52 394.14 506.59 394.16 460.33 329.56 506.52" style="fill:url(#linear-gradient-10)"/><polygon points="393.43 390.17 416.61 373.6 416.58 440.91 393.4 457.49 393.43 390.17" style="fill:url(#linear-gradient-11)"/><polygon points="410.26 283.87 417.38 288.97 417.35 349.68 406.96 357.12 406.93 422.68 384.47 438.74 384.5 383.95 391.56 378.9 391.61 283.84 410.26 283.87" style="fill:url(#linear-gradient-12)"/><polygon points="391.56 378.9 391.61 283.84 397.4 283.85 397.33 429.54 384.47 438.74 384.5 383.95 391.56 378.9" style="fill:url(#linear-gradient-13)"/><line x1="397.4" y1="283.85" x2="397.33" y2="429.54" style="fill:none;stroke:#5ec4e6;stroke-miterlimit:10;stroke-width:0.35450810692310936px"/><polygon points="393.58 515.74 372.39 515.72 366.34 511.37 309.38 511.31 328.68 497.51 378.07 497.56 381.57 495.06 381.59 459.68 400.89 445.88 400.87 486.69 406.92 491.03 406.91 506.21 393.58 515.74" style="fill:url(#linear-gradient-14)"/><polygon points="406.91 509.58 398.3 515.74 406.91 515.75 406.91 509.58" style="fill:#fff"/><polygon points="390.52 498.57 382.92 504 319.7 503.93 328.68 497.51 378.07 497.56 381.57 495.06 381.59 459.68 390.54 453.27 390.52 498.57" style="fill:url(#linear-gradient-15)"/><polyline points="390.54 453.27 390.52 498.57 382.92 504 319.7 503.93" style="fill:none;stroke:#5ec4e6;stroke-miterlimit:10;stroke-width:0.35450810692310936px"/><polygon points="405.3 461.41 413.15 455.79 413.15 450.17 405.3 455.78 405.3 461.41" style="fill:url(#linear-gradient-16)"/><polygon points="405.29 472.21 413.15 466.59 413.15 460.97 405.29 466.58 405.29 472.21" style="fill:url(#linear-gradient-17)"/><polygon points="405.28 483.01 413.14 477.4 413.14 471.77 405.29 477.39 405.28 483.01" style="fill:url(#linear-gradient-18)"/><polygon points="147.51 503.36 124.51 519.81 152.48 519.84 158.42 515.59 261.34 515.71 267.27 519.97 295.25 520 272.25 503.5 147.51 503.36" style="fill:url(#linear-gradient-19)"/><polygon points="157.13 497.81 170.59 507.47 249.17 507.56 262.64 497.93 157.13 497.81" style="fill:url(#linear-gradient-20)"/><polygon points="111.36 503.32 124.24 494.11 137.12 503.35 124.23 512.56 111.36 503.32" style="fill:url(#linear-gradient-21)"/><polygon points="282.65 503.51 295.54 494.3 308.41 503.54 295.53 512.75 282.65 503.51" style="fill:url(#linear-gradient-22)"/><polygon points="90.44 13.48 25.86 13.41 25.84 59.67 90.44 13.48" style="fill:url(#linear-gradient-23)"/><polygon points="26.57 129.83 3.39 146.4 3.42 79.09 26.6 62.52 26.57 129.83" style="fill:url(#linear-gradient-24)"/><polygon points="9.73 236.13 2.62 231.03 2.65 170.32 13.04 162.88 13.07 97.32 35.53 81.26 35.5 136.05 28.44 141.1 28.39 236.16 9.73 236.13" style="fill:url(#linear-gradient-25)"/><polygon points="28.44 141.1 28.39 236.16 22.6 236.15 22.67 90.46 35.53 81.26 35.5 136.05 28.44 141.1" style="fill:url(#linear-gradient-26)"/><line x1="22.6" y1="236.15" x2="22.67" y2="90.46" style="fill:none;stroke:#5ec4e6;stroke-miterlimit:10;stroke-width:0.35450810692310936px"/><polygon points="37.32 352.57 15.06 336.59 15.08 288.01 0 277.18 0 277.61 14.66 288.13 14.64 336.72 37.32 353 37.32 352.57" style="fill:#3cbff0"/><polygon points="15.13 182.97 37.41 167.04 37.41 166.62 14.71 182.85 14.69 231.43 0.02 241.92 0.02 242.35 15.11 231.55 15.13 182.97" style="fill:#3cbff0"/><polygon points="26.42 4.26 47.61 4.29 53.66 8.63 110.63 8.69 91.32 22.49 41.92 22.44 38.43 24.94 38.41 60.32 19.11 74.12 19.13 33.32 13.08 28.97 13.09 13.79 26.42 4.26" style="fill:url(#linear-gradient-27)"/><polygon points="13.09 10.42 21.7 4.26 13.09 4.25 13.09 10.42" style="fill:#fff"/><polygon points="29.48 21.43 37.08 16 100.3 16.07 91.32 22.49 41.92 22.44 38.43 24.94 38.41 60.32 29.46 66.72 29.48 21.43" style="fill:url(#linear-gradient-28)"/><polyline points="29.46 66.72 29.48 21.43 37.08 16 100.3 16.07" style="fill:none;stroke:#5ec4e6;stroke-miterlimit:10;stroke-width:0.35450810692310936px"/><polygon points="14.71 58.59 6.85 64.21 6.85 69.83 14.7 64.22 14.71 58.59" style="fill:url(#linear-gradient-29)"/><polygon points="14.71 47.79 6.85 53.41 6.85 59.03 14.71 53.41 14.71 47.79" style="fill:url(#linear-gradient-30)"/><polygon points="14.72 36.99 6.86 42.6 6.86 48.23 14.71 42.61 14.72 36.99" style="fill:url(#linear-gradient-31)"/><polygon points="329.79 13.75 394.38 13.82 394.35 60.09 329.79 13.75" style="fill:url(#linear-gradient-32)"/><polygon points="393.55 130.24 416.72 146.87 416.75 79.55 393.59 62.93 393.55 130.24" style="fill:url(#linear-gradient-33)"/><polygon points="410.29 236.58 417.41 231.49 417.44 170.78 407.05 163.32 407.08 97.76 384.64 81.66 384.61 136.44 391.68 141.51 391.63 236.56 410.29 236.58" style="fill:url(#linear-gradient-34)"/><polygon points="391.68 141.51 391.63 236.56 397.42 236.57 397.49 90.88 384.64 81.66 384.61 136.44 391.68 141.51" style="fill:url(#linear-gradient-35)"/><line x1="397.42" y1="236.57" x2="397.49" y2="90.88" style="fill:none;stroke:#5ec4e6;stroke-miterlimit:10;stroke-width:0.35450810692310936px"/><polygon points="405.29 337.15 405.31 288.57 419.98 278.08 419.98 277.65 404.89 288.45 404.87 337.03 382.59 352.96 382.59 353.38 405.29 337.15" style="fill:#3cbff0"/><polygon points="405.33 231.87 405.36 183.28 382.68 167 382.68 167.43 404.94 183.41 404.92 231.99 420 242.82 420 242.39 405.33 231.87" style="fill:#3cbff0"/><polygon points="393.83 4.67 372.63 4.65 366.58 8.98 309.61 8.92 328.9 22.76 378.3 22.81 381.79 25.32 381.78 60.71 401.06 74.55 401.08 33.74 407.14 29.41 407.15 14.23 393.83 4.67" style="fill:url(#linear-gradient-36)"/><polygon points="407.15 10.86 398.54 4.68 407.15 4.69 407.15 10.86" style="fill:#fff"/><polygon points="390.75 21.84 383.15 16.39 319.93 16.32 328.9 22.76 378.3 22.81 381.79 25.32 381.78 60.71 390.72 67.13 390.75 21.84" style="fill:url(#linear-gradient-37)"/><polyline points="390.72 67.13 390.75 21.84 383.15 16.39 319.93 16.32" style="fill:none;stroke:#5ec4e6;stroke-miterlimit:10;stroke-width:0.35450810692310936px"/><polygon points="405.49 59.03 413.34 64.66 413.33 70.29 405.48 64.65 405.49 59.03" style="fill:url(#linear-gradient-38)"/><polygon points="405.49 48.23 413.34 53.86 413.34 59.49 405.49 53.85 405.49 48.23" style="fill:url(#linear-gradient-39)"/><polygon points="405.5 37.43 413.35 43.06 413.35 48.69 405.49 43.05 405.5 37.43" style="fill:url(#linear-gradient-40)"/><polygon points="147.75 16.5 124.75 0 152.73 0.03 158.66 4.29 261.58 4.41 267.52 0.16 295.49 0.19 272.49 16.64 147.75 16.5" style="fill:url(#linear-gradient-41)"/><polygon points="157.36 22.07 170.83 12.44 249.41 12.53 262.87 22.19 157.36 22.07" style="fill:url(#linear-gradient-42)"/><polygon points="111.59 16.46 124.47 25.7 137.35 16.49 124.47 7.25 111.59 16.46" style="fill:url(#linear-gradient-43)"/><polygon points="282.88 16.65 295.76 25.89 308.64 16.68 295.77 7.44 282.88 16.65" style="fill:url(#linear-gradient-44)"/></svg>